<?xml version="1.0" standalone="no"?>
<!DOCTYPE svg PUBLIC "-//W3C//DTD SVG 20010904//EN"
 "http://www.w3.org/TR/2001/REC-SVG-20010904/DTD/svg10.dtd">
<svg version="1.0" xmlns="http://www.w3.org/2000/svg"
 width="375.000000pt" height="375.000000pt" viewBox="0 0 375.000000 375.000000"
 preserveAspectRatio="xMidYMid meet">
<metadata>
Created by potrace 1.11, written by Peter Selinger 2001-2013
</metadata>
<g transform="translate(0.000000,375.000000) scale(0.100000,-0.100000)"
fill="#000000" stroke="none">
<path d="M0 1875 l0 -1875 1875 0 1875 0 0 1875 0 1875 -1875 0 -1875 0 0
-1875z m2270 1370 c102 -32 204 -82 285 -140 68 -48 195 -178 244 -248 95
-139 173 -355 210 -583 88 -547 -121 -993 -528 -1125 -80 -26 -117 -32 -221
-36 -257 -11 -474 69 -633 232 -31 32 -60 56 -63 53 -3 -4 13 -215 35 -470 23
-255 41 -469 41 -476 0 -9 -66 -12 -285 -12 -157 0 -285 3 -285 7 0 4 -54 624
-120 1378 -66 755 -120 1380 -120 1389 0 15 24 16 267 14 l268 -3 7 -50 c4
-27 10 -85 13 -127 4 -43 10 -78 14 -78 4 0 18 18 30 41 30 53 118 141 176
174 55 33 173 76 235 86 25 4 113 6 195 4 129 -3 162 -7 235 -30z"/>
<path d="M1830 2850 c-79 -8 -129 -29 -189 -78 -64 -52 -77 -67 -115 -147 -45
-92 -59 -172 -58 -325 3 -290 68 -486 206 -625 111 -110 231 -153 392 -142
108 8 171 36 245 108 132 129 180 365 130 640 -48 266 -149 430 -322 527 -68
37 -176 53 -289 42z"/>
</g>
</svg>
